<svg id="Layer_1" data-name="Layer 1" xmlns="http://www.w3.org/2000/svg" viewBox="0 0 50 50"><defs><style>.cls-1{fill:#0078d2;}</style></defs><title>Calendar-icon</title><polygon class="cls-1" points="40.63 44.25 9.38 44.25 9.38 20.99 6.47 20.99 6.47 47.15 43.53 47.15 43.53 20.99 40.63 20.99 40.63 44.25"/><rect class="cls-1" x="22.08" y="6.48" width="5.33" height="2.9"/><path class="cls-1" d="M30.09,9.38H33V4.3a1.44,1.44,0,0,0-1.45-1.45H30.09Z"/><path class="cls-1" d="M16.52,9.38h2.89V5A1.45,1.45,0,0,0,18,3.58H16.54Z"/><path class="cls-1" d="M43.53,18.09V12.7A6.23,6.23,0,0,0,37.3,6.48H35.47v2.9H37.3a3.32,3.32,0,0,1,3.32,3.32v2.49H9.37V12.7a3.32,3.32,0,0,1,3.32-3.32h1.16V6.48H12.69A6.23,6.23,0,0,0,6.47,12.7v5.39Z"/><rect class="cls-1" x="15.16" y="38.44" width="2.9" height="2.9"/><rect class="cls-1" x="23.77" y="38.44" width="2.9" height="2.9"/><rect class="cls-1" x="32.37" y="38.44" width="2.9" height="2.9"/><rect class="cls-1" x="15.16" y="29.73" width="2.9" height="2.9"/><rect class="cls-1" x="23.77" y="29.73" width="2.9" height="2.9"/><rect class="cls-1" x="15.16" y="21.02" width="2.9" height="2.9"/><rect class="cls-1" x="23.8" y="20.99" width="2.9" height="2.9"/><rect class="cls-1" x="32.37" y="21.02" width="2.9" height="2.9"/><polygon class="cls-1" points="38.19 28.89 36.15 26.83 33.82 29.14 31.49 26.83 29.45 28.89 31.76 31.18 29.45 33.47 31.49 35.53 33.82 33.22 36.15 35.53 38.19 33.47 35.88 31.18 38.19 28.89"/></svg>