<svg id="Layer_1" data-name="Layer 1" xmlns="http://www.w3.org/2000/svg" viewBox="0 0 50 50"><defs><style>.cls-1{fill:#36495a;}</style></defs><title>Collapse-icon</title><polygon class="cls-1" points="29.71 20.63 29.7 20.62 29.7 20.63 29.71 20.63"/><path class="cls-1" d="M27.48,8.81h0V9.92h0V20.63h0v2.22H41.53a1.11,1.11,0,0,0,1.11-1.11V20.63H31.27L47.62,4.29,46.05,2.72,29.7,19.06V9.92h0V8.81h0V7.7H28.59A1.11,1.11,0,0,0,27.48,8.81Zm2.23,11.82h0Z"/><polygon class="cls-1" points="19.96 30.37 19.97 30.38 19.97 30.37 19.96 30.37"/><path class="cls-1" d="M22.19,42.19h0V41.08h0V30.37h0V28.15h-14A1.11,1.11,0,0,0,7,29.26v1.11H18.4L2.05,46.71l1.57,1.57L20,31.94v9.14h0v1.11h0v1.1h1.11A1.11,1.11,0,0,0,22.19,42.19ZM20,30.37h0Z"/></svg>