<svg id="Layer_1" data-name="Layer 1" xmlns="http://www.w3.org/2000/svg" viewBox="0 0 50 50"><defs><style>.cls-1{fill:#416482;}</style></defs><title>Popular-icon</title><path class="cls-1" d="M19,44.27a.09.09,0,0,1-.08.16c-1.7-.46-9.89-3.29-8-14.5C12.86,18.24,23,6.36,23.42,5.58c0-.06.09-.11.14,0C35.4,18.78,38,23.41,39.09,29.87a17.69,17.69,0,0,1,0,6.19c-.84,4.1-2.71,8.29-9.1,8.44a.1.1,0,0,1-.06-.18c9-6,3-19.4-4.39-27.15-.07-.07-.19,0-.17.07.46,2.33,3.47,12.6.27,16.67a.1.1,0,0,1-.17-.06c-.14-2.09-2.06-5.9-4-7.94a.09.09,0,0,0-.15.06C20.86,28.41,13.36,38.19,19,44.27Z"/></svg>