<svg id="Layer_1" data-name="Layer 1" xmlns="http://www.w3.org/2000/svg" viewBox="0 0 50 50"><defs><style>.cls-1{fill:#0078d2;}</style></defs><title>Search-icon</title><path class="cls-1" d="M21.09,30.94,10.78,44,8.53,42.26l10.4-13.14a16.34,16.34,0,0,1-1.64-1.89L5.82,41.72l-.76,1,1,.79,4.22,3.2a1.2,1.2,0,0,0,.74.25,1.27,1.27,0,0,0,1-.46L23.21,32.22A16.91,16.91,0,0,1,21.14,31Z"/><path class="cls-1" d="M30.79,31.37a14.14,14.14,0,1,1,0-28.28,14.14,14.14,0,1,1,0,28.28Zm0-25.82a11.7,11.7,0,0,0-9.57,5,11.68,11.68,0,0,0,9.55,18.39,11.73,11.73,0,0,0,9.57-5A11.68,11.68,0,0,0,30.81,5.55Z"/></svg>